<mxfile host="app.diagrams.net" agent="Mozilla/5.0 (Windows NT 10.0; Win64; x64) AppleWebKit/537.36 (KHTML, like Gecko) Chrome/131.0.0.0 Safari/537.36" version="26.0.5">
  <diagram id="codeviz-diagram" name="System Diagram">
    <mxGraphModel dx="1750" dy="870" grid="1" gridSize="10" guides="1" tooltips="1" connect="1" arrows="1" fold="1" page="1" pageScale="1" pageWidth="827" pageHeight="1169" math="0" shadow="0" adaptiveColors="simple">
      <root>
        <mxCell id="0" />
        <mxCell id="1" parent="0" />
        <mxCell id="subGraph1" value="" style="html=1;whiteSpace=wrap;container=1;fillColor=#FAE5C7;strokeColor=#0F8B8D;dashed=1;fillOpacity=20;strokeWidth=2;containerType=none;recursiveResize=0;movable=1;resizable=1;autosize=0;dropTarget=0;labelBackgroundColor=none;fontColor=#143642;fontStyle=1" parent="1" vertex="1">
          <mxGeometry x="130" y="399" width="1000" height="555" as="geometry" />
        </mxCell>
        <mxCell id="subGraph0" value="" style="html=1;whiteSpace=wrap;container=1;fillColor=#FAE5C7;strokeColor=#0F8B8D;dashed=1;fillOpacity=20;strokeWidth=2;containerType=none;recursiveResize=0;movable=1;resizable=1;autosize=0;dropTarget=0;labelBackgroundColor=none;fontColor=#143642;fontStyle=1" parent="subGraph1" vertex="1">
          <mxGeometry x="50" y="215" width="940" height="320" as="geometry" />
        </mxCell>
        <mxCell id="AuthComponent" value="Authentication Component&lt;br&gt;(React)" style="rounded=1;whiteSpace=wrap;html=1;fillColor=#FAE5C7;labelBackgroundColor=none;strokeColor=#0F8B8D;fontColor=#143642;fontStyle=1" parent="subGraph0" vertex="1">
          <mxGeometry x="738" y="136" width="120" height="60" as="geometry" />
        </mxCell>
        <mxCell id="DashboardPage" value="Dashboard Page&lt;br&gt;(React)" style="rounded=1;whiteSpace=wrap;html=1;fillColor=#FAE5C7;labelBackgroundColor=none;strokeColor=#0F8B8D;fontColor=#143642;fontStyle=1" parent="subGraph0" vertex="1">
          <mxGeometry x="460" y="120" width="120" height="60" as="geometry" />
        </mxCell>
        <mxCell id="ElectionPage" value="Election Page&lt;br&gt;(React)" style="rounded=1;whiteSpace=wrap;html=1;fillColor=#FAE5C7;labelBackgroundColor=none;strokeColor=#0F8B8D;fontColor=#143642;fontStyle=1" parent="subGraph0" vertex="1">
          <mxGeometry x="40" y="120" width="120" height="60" as="geometry" />
        </mxCell>
        <mxCell id="FraudDetection" value="Fraud Detection Utils&lt;br&gt;(JavaScript)" style="rounded=1;whiteSpace=wrap;html=1;fillColor=#FAE5C7;labelBackgroundColor=none;strokeColor=#0F8B8D;fontColor=#143642;fontStyle=1" parent="subGraph0" vertex="1">
          <mxGeometry x="205" y="220" width="120" height="60" as="geometry" />
        </mxCell>
        <mxCell id="NavComponent" value="Navigation Component&lt;br&gt;(React)" style="rounded=1;whiteSpace=wrap;html=1;fillColor=#FAE5C7;labelBackgroundColor=none;strokeColor=#0F8B8D;fontColor=#143642;fontStyle=1" parent="subGraph0" vertex="1">
          <mxGeometry x="180" y="120" width="120" height="60" as="geometry" />
        </mxCell>
        <mxCell id="ResultsPage" value="Results Page&lt;br&gt;(React)" style="rounded=1;whiteSpace=wrap;html=1;fillColor=#FAE5C7;labelBackgroundColor=none;strokeColor=#0F8B8D;fontColor=#143642;fontStyle=1" parent="subGraph0" vertex="1">
          <mxGeometry x="600" y="136" width="120" height="60" as="geometry" />
        </mxCell>
        <mxCell id="VotePage" value="Voting Page&lt;br&gt;(React)" style="rounded=1;whiteSpace=wrap;html=1;fillColor=#FAE5C7;labelBackgroundColor=none;strokeColor=#0F8B8D;fontColor=#143642;fontStyle=1" parent="subGraph0" vertex="1">
          <mxGeometry x="325" y="120" width="120" height="60" as="geometry" />
        </mxCell>
        <mxCell id="VoteUtils" value="Vote Utils&lt;br&gt;(JavaScript)" style="rounded=1;whiteSpace=wrap;html=1;fillColor=#FAE5C7;labelBackgroundColor=none;strokeColor=#0F8B8D;fontColor=#143642;fontStyle=1" parent="subGraph0" vertex="1">
          <mxGeometry x="440" y="220" width="120" height="60" as="geometry" />
        </mxCell>
        <mxCell id="subGraph0_label" value="&lt;font style=&quot;font-size: 16px;&quot;&gt;Frontend Components&lt;/font&gt;" style="edgeLabel;html=1;align=center;verticalAlign=middle;resizable=0;labelBackgroundColor=none;spacing=5;fontColor=#143642;fontStyle=1" parent="subGraph1" vertex="1">
          <mxGeometry x="79" y="223" width="864" height="24" as="geometry" />
        </mxCell>
        <mxCell id="ClientApp" value="Web Client&lt;br&gt;(Next.js)" style="rounded=1;whiteSpace=wrap;html=1;fillColor=#FAE5C7;labelBackgroundColor=none;strokeColor=#0F8B8D;fontColor=#143642;fontStyle=1" parent="subGraph1" vertex="1">
          <mxGeometry x="438" y="111" width="120" height="60" as="geometry" />
        </mxCell>
        <mxCell id="subGraph1_label" value="&lt;font style=&quot;font-size: 16px;&quot;&gt;&lt;i&gt;Frontend&amp;nbsp; Application&lt;/i&gt;&lt;/font&gt;" style="edgeLabel;html=1;align=center;verticalAlign=middle;resizable=0;labelBackgroundColor=none;spacing=5;fontColor=#143642;fontStyle=1" parent="1" vertex="1">
          <mxGeometry x="174" y="427" width="924" height="24" as="geometry" />
        </mxCell>
        <mxCell id="subGraph3" value="" style="html=1;whiteSpace=wrap;container=1;fillColor=#FAE5C7;strokeColor=#0F8B8D;dashed=1;fillOpacity=20;strokeWidth=2;containerType=none;recursiveResize=0;movable=1;resizable=1;autosize=0;dropTarget=0;labelBackgroundColor=none;fontColor=#143642;fontStyle=1" parent="1" vertex="1">
          <mxGeometry x="662" y="1030" width="968" height="449" as="geometry" />
        </mxCell>
        <mxCell id="subGraph2" value="" style="html=1;whiteSpace=wrap;container=1;fillColor=#FAE5C7;strokeColor=#0F8B8D;dashed=1;fillOpacity=20;strokeWidth=2;containerType=none;recursiveResize=0;movable=1;resizable=1;autosize=0;dropTarget=0;labelBackgroundColor=none;fontColor=#143642;fontStyle=1" parent="subGraph3" vertex="1">
          <mxGeometry x="50" y="200" width="900" height="225" as="geometry" />
        </mxCell>
        <mxCell id="AuthUtils" value="Auth Utilities&lt;br&gt;(Node.js)" style="rounded=1;whiteSpace=wrap;html=1;fillColor=#FAE5C7;labelBackgroundColor=none;strokeColor=#0F8B8D;fontColor=#143642;fontStyle=1" parent="subGraph2" vertex="1">
          <mxGeometry x="180" y="120" width="120" height="60" as="geometry" />
        </mxCell>
        <mxCell id="ElectionController" value="Election Controller&lt;br&gt;(Express)" style="rounded=1;whiteSpace=wrap;html=1;fillColor=#FAE5C7;labelBackgroundColor=none;strokeColor=#0F8B8D;fontColor=#143642;fontStyle=1" parent="subGraph2" vertex="1">
          <mxGeometry x="768" y="100" width="120" height="60" as="geometry" />
        </mxCell>
        <mxCell id="ValidationUtils" value="Validation Utils&lt;br&gt;(Node.js)" style="rounded=1;whiteSpace=wrap;html=1;fillColor=#FAE5C7;labelBackgroundColor=none;strokeColor=#0F8B8D;fontColor=#143642;fontStyle=1" parent="subGraph2" vertex="1">
          <mxGeometry x="40" y="120" width="120" height="60" as="geometry" />
        </mxCell>
        <mxCell id="VoteController" value="Vote Controller&lt;br&gt;(Express)" style="rounded=1;whiteSpace=wrap;html=1;fillColor=#FAE5C7;labelBackgroundColor=none;strokeColor=#0F8B8D;fontColor=#143642;fontStyle=1" parent="subGraph2" vertex="1">
          <mxGeometry x="508" y="160" width="120" height="60" as="geometry" />
        </mxCell>
        <mxCell id="subGraph2_label" value="&lt;font style=&quot;font-size: 16px;&quot;&gt;Server Components&lt;/font&gt;" style="edgeLabel;html=1;align=center;verticalAlign=middle;resizable=0;labelBackgroundColor=none;spacing=5;fontColor=#143642;fontStyle=1" parent="subGraph3" vertex="1">
          <mxGeometry x="81" y="213" width="724" height="24" as="geometry" />
        </mxCell>
        <mxCell id="APIServer" value="API Server&lt;br&gt;(Node.js/Express)" style="rounded=1;whiteSpace=wrap;html=1;fillColor=#FAE5C7;labelBackgroundColor=none;strokeColor=#0F8B8D;fontColor=#143642;fontStyle=1" parent="subGraph3" vertex="1">
          <mxGeometry x="360" y="120" width="120" height="60" as="geometry" />
        </mxCell>
        <mxCell id="subGraph3_label" value="&lt;font style=&quot;font-size: 16px;&quot;&gt;Backend Services&lt;/font&gt;" style="edgeLabel;html=1;align=center;verticalAlign=middle;resizable=0;labelBackgroundColor=none;spacing=5;fontColor=#143642;fontStyle=1" parent="1" vertex="1">
          <mxGeometry x="688" y="1042" width="784" height="24" as="geometry" />
        </mxCell>
        <mxCell id="subGraph5" value="" style="html=1;whiteSpace=wrap;container=1;fillColor=#FAE5C7;strokeColor=#0F8B8D;dashed=1;fillOpacity=20;strokeWidth=2;containerType=none;recursiveResize=0;movable=1;resizable=1;autosize=0;dropTarget=0;labelBackgroundColor=none;fontColor=#143642;fontStyle=1" parent="1" vertex="1">
          <mxGeometry x="262" y="1564" width="480" height="535" as="geometry" />
        </mxCell>
        <mxCell id="subGraph4" value="" style="html=1;whiteSpace=wrap;container=1;fillColor=#FAE5C7;strokeColor=#0F8B8D;dashed=1;fillOpacity=20;strokeWidth=2;containerType=none;recursiveResize=0;movable=1;resizable=1;autosize=0;dropTarget=0;labelBackgroundColor=none;fontColor=#143642;fontStyle=1" parent="subGraph5" vertex="1">
          <mxGeometry x="50" y="195" width="380" height="320" as="geometry" />
        </mxCell>
        <mxCell id="ContractTests" value="Contract Tests&lt;br&gt;(JavaScript)" style="rounded=1;whiteSpace=wrap;html=1;fillColor=#FAE5C7;labelBackgroundColor=none;strokeColor=#0F8B8D;fontColor=#143642;fontStyle=1" parent="subGraph4" vertex="1">
          <mxGeometry x="128" y="47" width="120" height="60" as="geometry" />
        </mxCell>
        <mxCell id="DeployScripts" value="Deployment Scripts&lt;br&gt;(JavaScript)" style="rounded=1;whiteSpace=wrap;html=1;fillColor=#FAE5C7;labelBackgroundColor=none;strokeColor=#0F8B8D;fontColor=#143642;fontStyle=1" parent="subGraph4" vertex="1">
          <mxGeometry y="173" width="120" height="60" as="geometry" />
        </mxCell>
        <mxCell id="VotingContract" value="Voting Contract&lt;br&gt;(Solidity)" style="rounded=1;whiteSpace=wrap;html=1;fillColor=#FAE5C7;labelBackgroundColor=none;strokeColor=#0F8B8D;fontColor=#143642;fontStyle=1" parent="subGraph4" vertex="1">
          <mxGeometry x="240" y="233" width="120" height="60" as="geometry" />
        </mxCell>
        <mxCell id="subGraph4_label" value="&lt;font style=&quot;font-size: 16px;&quot;&gt;Blockchain Components&lt;/font&gt;" style="edgeLabel;html=1;align=center;verticalAlign=middle;resizable=0;labelBackgroundColor=none;spacing=5;fontColor=#143642;fontStyle=1" parent="subGraph5" vertex="1">
          <mxGeometry x="58" y="203" width="304" height="24" as="geometry" />
        </mxCell>
        <mxCell id="SmartContracts" value="Smart Contracts&lt;br&gt;(Solidity)" style="rounded=1;whiteSpace=wrap;html=1;fillColor=#FAE5C7;labelBackgroundColor=none;strokeColor=#0F8B8D;fontColor=#143642;fontStyle=1" parent="subGraph5" vertex="1">
          <mxGeometry x="290" y="120" width="120" height="60" as="geometry" />
        </mxCell>
        <mxCell id="subGraph5_label" value="&lt;font style=&quot;font-size: 16px;&quot;&gt;Blockchain Layer&lt;/font&gt;" style="edgeLabel;html=1;align=center;verticalAlign=middle;resizable=0;labelBackgroundColor=none;spacing=5;fontColor=#143642;fontStyle=1" parent="1" vertex="1">
          <mxGeometry x="270" y="1572" width="404" height="24" as="geometry" />
        </mxCell>
        <mxCell id="subGraph7" value="" style="html=1;whiteSpace=wrap;container=1;fillColor=#FAE5C7;strokeColor=#0F8B8D;dashed=1;fillOpacity=20;strokeWidth=2;containerType=none;recursiveResize=0;movable=1;resizable=1;autosize=0;dropTarget=0;labelBackgroundColor=none;fontColor=#143642;fontStyle=1" parent="1" vertex="1">
          <mxGeometry x="940" y="1560" width="380" height="539" as="geometry" />
        </mxCell>
        <mxCell id="subGraph6" value="" style="html=1;whiteSpace=wrap;container=1;fillColor=#FAE5C7;strokeColor=#0F8B8D;dashed=1;fillOpacity=20;strokeWidth=2;containerType=none;recursiveResize=0;movable=1;resizable=1;autosize=0;dropTarget=0;labelBackgroundColor=none;fontColor=#143642;fontStyle=1" parent="subGraph7" vertex="1">
          <mxGeometry x="60" y="180" width="290" height="334" as="geometry" />
        </mxCell>
        <mxCell id="FraudModel" value="Fraud Detection Model&lt;br&gt;(Python)" style="rounded=1;whiteSpace=wrap;html=1;fillColor=#FAE5C7;labelBackgroundColor=none;strokeColor=#0F8B8D;fontColor=#143642;fontStyle=1" parent="subGraph6" vertex="1">
          <mxGeometry x="130" y="230" width="120" height="60" as="geometry" />
        </mxCell>
        <mxCell id="ModelTraining" value="Model Training System&lt;br&gt;(Python)" style="rounded=1;whiteSpace=wrap;html=1;fillColor=#FAE5C7;labelBackgroundColor=none;strokeColor=#0F8B8D;fontColor=#143642;fontStyle=1" parent="subGraph6" vertex="1">
          <mxGeometry x="18" y="120" width="120" height="60" as="geometry" />
        </mxCell>
        <mxCell id="subGraph6_label" value="&lt;font style=&quot;font-size: 16px;&quot;&gt;ML Components&lt;/font&gt;" style="edgeLabel;html=1;align=center;verticalAlign=middle;resizable=0;labelBackgroundColor=none;spacing=5;fontColor=#143642;fontStyle=1" parent="subGraph7" vertex="1">
          <mxGeometry x="50" y="180" width="184" height="24" as="geometry" />
        </mxCell>
        <mxCell id="MLService" value="Fraud Detection Service&lt;br&gt;(Python)" style="rounded=1;whiteSpace=wrap;html=1;fillColor=#FAE5C7;labelBackgroundColor=none;strokeColor=#0F8B8D;fontColor=#143642;fontStyle=1" parent="subGraph7" vertex="1">
          <mxGeometry x="150" y="108" width="120" height="60" as="geometry" />
        </mxCell>
        <mxCell id="y_iDRGgZpkiOHUyYzfrQ-3" style="edgeStyle=orthogonalEdgeStyle;rounded=0;orthogonalLoop=1;jettySize=auto;html=1;exitX=0.5;exitY=1;exitDx=0;exitDy=0;strokeColor=#A8201A;fontColor=#143642;fillColor=#FAE5C7;" edge="1" parent="subGraph7" source="subGraph6_label" target="subGraph6_label">
          <mxGeometry relative="1" as="geometry" />
        </mxCell>
        <mxCell id="subGraph7_label" value="&lt;font style=&quot;font-size: 16px;&quot;&gt;ML System&lt;/font&gt;" style="edgeLabel;html=1;align=center;verticalAlign=middle;resizable=0;labelBackgroundColor=none;spacing=5;fontColor=#143642;fontStyle=1" parent="1" vertex="1">
          <mxGeometry x="870" y="1560" width="264" height="24" as="geometry" />
        </mxCell>
        <mxCell id="subGraph8" value="" style="html=1;whiteSpace=wrap;container=1;fillColor=#FAE5C7;strokeColor=#0F8B8D;dashed=1;fillOpacity=20;strokeWidth=2;containerType=none;recursiveResize=0;movable=1;resizable=1;autosize=0;dropTarget=0;labelBackgroundColor=none;fontColor=#143642;fontStyle=1" parent="1" vertex="1">
          <mxGeometry x="1361" y="1680" width="240" height="220" as="geometry" />
        </mxCell>
        <mxCell id="Database" value="Database&lt;br&gt;(MongoDB)" style="rounded=1;whiteSpace=wrap;html=1;fillColor=#FAE5C7;labelBackgroundColor=none;strokeColor=#0F8B8D;fontColor=#143642;fontStyle=1" parent="subGraph8" vertex="1">
          <mxGeometry x="69" y="124" width="120" height="60" as="geometry" />
        </mxCell>
        <mxCell id="subGraph8_label" value="&lt;font style=&quot;font-size: 16px;&quot;&gt;Data Layer&lt;/font&gt;" style="edgeLabel;html=1;align=center;verticalAlign=middle;resizable=0;labelBackgroundColor=none;spacing=5;fontColor=#143642;fontStyle=1" parent="1" vertex="1">
          <mxGeometry x="1340" y="1680" width="164" height="24" as="geometry" />
        </mxCell>
        <mxCell id="Admin" value="Admin" style="rounded=1;whiteSpace=wrap;html=1;fillColor=#FAE5C7;labelBackgroundColor=none;strokeColor=#0F8B8D;fontColor=#143642;fontStyle=1" parent="1" vertex="1">
          <mxGeometry x="674" y="224" width="120" height="60" as="geometry" />
        </mxCell>
        <mxCell id="User" value="User" style="rounded=1;whiteSpace=wrap;html=1;fillColor=#FAE5C7;labelBackgroundColor=none;strokeColor=#0F8B8D;fontColor=#143642;fontStyle=1" parent="1" vertex="1">
          <mxGeometry x="460" y="224" width="120" height="60" as="geometry" />
        </mxCell>
        <mxCell id="edge-L_Admin_ClientApp_1" style="edgeStyle=orthogonalEdgeStyle;rounded=1;orthogonalLoop=1;jettySize=auto;html=1;strokeColor=#A8201A;strokeWidth=2;jumpStyle=arc;jumpSize=10;spacing=15;labelBackgroundColor=none;labelBorderColor=none;fontColor=default;fontStyle=1" parent="1" source="Admin" target="ClientApp" edge="1">
          <mxGeometry relative="1" as="geometry" />
        </mxCell>
        <mxCell id="edge-L_Admin_ClientApp_1_label" value="Manages" style="edgeLabel;html=1;align=center;verticalAlign=middle;resizable=0;points=[];labelBackgroundColor=none;fontColor=#143642;fontStyle=1" parent="edge-L_Admin_ClientApp_1" vertex="1" connectable="0">
          <mxGeometry x="-0.2" y="10" relative="1" as="geometry">
            <mxPoint x="-20" as="offset" />
          </mxGeometry>
        </mxCell>
        <mxCell id="edge-L_APIServer_AuthUtils_14" style="edgeStyle=orthogonalEdgeStyle;rounded=1;orthogonalLoop=1;jettySize=auto;html=1;strokeColor=#A8201A;strokeWidth=2;jumpStyle=arc;jumpSize=10;spacing=15;labelBackgroundColor=none;labelBorderColor=none;fontColor=default;fontStyle=1" parent="1" source="APIServer" target="AuthUtils" edge="1">
          <mxGeometry relative="1" as="geometry" />
        </mxCell>
        <mxCell id="edge-L_APIServer_AuthUtils_14_label" value="Uses" style="edgeLabel;html=1;align=center;verticalAlign=middle;resizable=0;points=[];labelBackgroundColor=none;fontColor=#143642;fontStyle=1;rotation=90;" parent="edge-L_APIServer_AuthUtils_14" vertex="1" connectable="0">
          <mxGeometry x="-0.2" y="10" relative="1" as="geometry">
            <mxPoint x="1" y="82" as="offset" />
          </mxGeometry>
        </mxCell>
        <mxCell id="edge-L_APIServer_ElectionController_12" style="edgeStyle=orthogonalEdgeStyle;rounded=1;orthogonalLoop=1;jettySize=auto;html=1;strokeColor=#A8201A;strokeWidth=2;jumpStyle=arc;jumpSize=10;spacing=15;labelBackgroundColor=none;labelBorderColor=none;fontColor=default;fontStyle=1" parent="1" source="APIServer" target="ElectionController" edge="1">
          <mxGeometry relative="1" as="geometry" />
        </mxCell>
        <mxCell id="edge-L_APIServer_ElectionController_12_label" value="Routes to" style="edgeLabel;html=1;align=center;verticalAlign=middle;resizable=0;points=[];labelBackgroundColor=none;fontColor=#143642;fontStyle=1;rotation=90;" parent="edge-L_APIServer_ElectionController_12" vertex="1" connectable="0">
          <mxGeometry x="-0.2" y="10" relative="1" as="geometry">
            <mxPoint x="169" y="116" as="offset" />
          </mxGeometry>
        </mxCell>
        <mxCell id="edge-L_APIServer_UserController_11" style="edgeStyle=orthogonalEdgeStyle;rounded=1;orthogonalLoop=1;jettySize=auto;html=1;strokeColor=#A8201A;strokeWidth=2;jumpStyle=arc;jumpSize=10;spacing=15;labelBackgroundColor=none;labelBorderColor=none;fontColor=default;fontStyle=1" parent="1" source="APIServer" target="UserController" edge="1">
          <mxGeometry relative="1" as="geometry" />
        </mxCell>
        <mxCell id="edge-L_APIServer_UserController_11_label" value="Routes to" style="edgeLabel;html=1;align=center;verticalAlign=middle;resizable=0;points=[];labelBackgroundColor=none;fontColor=#143642;fontStyle=1;rotation=90;" parent="edge-L_APIServer_UserController_11" vertex="1" connectable="0">
          <mxGeometry x="-0.2" y="10" relative="1" as="geometry">
            <mxPoint x="86" y="123" as="offset" />
          </mxGeometry>
        </mxCell>
        <mxCell id="edge-L_APIServer_ValidationUtils_15" style="edgeStyle=orthogonalEdgeStyle;rounded=1;orthogonalLoop=1;jettySize=auto;html=1;strokeColor=#A8201A;strokeWidth=2;jumpStyle=arc;jumpSize=10;spacing=15;labelBackgroundColor=none;labelBorderColor=none;fontColor=default;fontStyle=1" parent="1" source="APIServer" target="ValidationUtils" edge="1">
          <mxGeometry relative="1" as="geometry" />
        </mxCell>
        <mxCell id="edge-L_APIServer_ValidationUtils_15_label" value="Uses" style="edgeLabel;html=1;align=center;verticalAlign=middle;resizable=0;points=[];labelBackgroundColor=none;fontColor=#143642;fontStyle=1;rotation=90;" parent="edge-L_APIServer_ValidationUtils_15" vertex="1" connectable="0">
          <mxGeometry x="-0.2" y="10" relative="1" as="geometry">
            <mxPoint x="-45" y="98" as="offset" />
          </mxGeometry>
        </mxCell>
        <mxCell id="edge-L_APIServer_VoteController_13" style="edgeStyle=orthogonalEdgeStyle;rounded=1;orthogonalLoop=1;jettySize=auto;html=1;strokeColor=#A8201A;strokeWidth=2;jumpStyle=arc;jumpSize=10;spacing=15;labelBackgroundColor=none;labelBorderColor=none;fontColor=default;fontStyle=1" parent="1" source="APIServer" target="VoteController" edge="1">
          <mxGeometry relative="1" as="geometry" />
        </mxCell>
        <mxCell id="edge-L_APIServer_VoteController_13_label" value="Routes to" style="edgeLabel;html=1;align=center;verticalAlign=middle;resizable=0;points=[];labelBackgroundColor=none;fontColor=#143642;fontStyle=1;rotation=90;" parent="edge-L_APIServer_VoteController_13" vertex="1" connectable="0">
          <mxGeometry x="-0.2" y="10" relative="1" as="geometry">
            <mxPoint x="-2" y="122" as="offset" />
          </mxGeometry>
        </mxCell>
        <mxCell id="edge-L_ClientApp_APIServer_10" style="edgeStyle=orthogonalEdgeStyle;rounded=1;orthogonalLoop=1;jettySize=auto;html=1;strokeColor=#A8201A;strokeWidth=2;jumpStyle=arc;jumpSize=10;spacing=15;labelBackgroundColor=none;labelBorderColor=none;fontColor=default;fontStyle=1" parent="1" source="ClientApp" target="APIServer" edge="1">
          <mxGeometry relative="1" as="geometry" />
        </mxCell>
        <mxCell id="edge-L_ClientApp_APIServer_10_label" value="API Requests" style="edgeLabel;html=1;align=center;verticalAlign=middle;resizable=0;points=[];labelBackgroundColor=none;fontColor=#143642;rotation=-90;fontStyle=1" parent="edge-L_ClientApp_APIServer_10" vertex="1" connectable="0">
          <mxGeometry x="-0.2" y="10" relative="1" as="geometry">
            <mxPoint x="-20" y="331" as="offset" />
          </mxGeometry>
        </mxCell>
        <mxCell id="edge-L_ClientApp_AuthComponent_3" style="edgeStyle=orthogonalEdgeStyle;rounded=1;orthogonalLoop=1;jettySize=auto;html=1;strokeColor=#A8201A;strokeWidth=2;jumpStyle=arc;jumpSize=10;spacing=15;labelBackgroundColor=none;labelBorderColor=none;fontColor=default;fontStyle=1" parent="1" source="ClientApp" target="AuthComponent" edge="1">
          <mxGeometry relative="1" as="geometry" />
        </mxCell>
        <mxCell id="edge-L_ClientApp_AuthComponent_3_label" value="Uses" style="edgeLabel;html=1;align=center;verticalAlign=middle;resizable=0;points=[];labelBackgroundColor=none;fontColor=#143642;rotation=90;fontStyle=1" parent="edge-L_ClientApp_AuthComponent_3" vertex="1" connectable="0">
          <mxGeometry x="-0.2" y="10" relative="1" as="geometry">
            <mxPoint x="103" y="142" as="offset" />
          </mxGeometry>
        </mxCell>
        <mxCell id="edge-L_ClientApp_DashboardPage_4" style="edgeStyle=orthogonalEdgeStyle;rounded=1;orthogonalLoop=1;jettySize=auto;html=1;strokeColor=#A8201A;strokeWidth=2;jumpStyle=arc;jumpSize=10;spacing=15;labelBackgroundColor=none;labelBorderColor=none;fontColor=default;fontStyle=1" parent="1" source="ClientApp" target="DashboardPage" edge="1">
          <mxGeometry relative="1" as="geometry" />
        </mxCell>
        <mxCell id="edge-L_ClientApp_DashboardPage_4_label" value="Routes to" style="edgeLabel;html=1;align=center;verticalAlign=middle;resizable=0;points=[];labelBackgroundColor=none;fontColor=#143642;rotation=90;fontStyle=1" parent="edge-L_ClientApp_DashboardPage_4" vertex="1" connectable="0">
          <mxGeometry x="-0.2" y="10" relative="1" as="geometry">
            <mxPoint x="70" y="52" as="offset" />
          </mxGeometry>
        </mxCell>
        <mxCell id="edge-L_ClientApp_ElectionPage_5" style="edgeStyle=orthogonalEdgeStyle;rounded=1;orthogonalLoop=1;jettySize=auto;html=1;strokeColor=#A8201A;strokeWidth=2;jumpStyle=arc;jumpSize=10;spacing=15;labelBackgroundColor=none;labelBorderColor=none;fontColor=default;fontStyle=1" parent="1" source="ClientApp" target="ElectionPage" edge="1">
          <mxGeometry relative="1" as="geometry" />
        </mxCell>
        <mxCell id="edge-L_ClientApp_ElectionPage_5_label" value="Routes to" style="edgeLabel;html=1;align=center;verticalAlign=middle;resizable=0;points=[];labelBackgroundColor=none;fontColor=#143642;fontStyle=1;rotation=90;" parent="edge-L_ClientApp_ElectionPage_5" vertex="1" connectable="0">
          <mxGeometry x="-0.2" y="10" relative="1" as="geometry">
            <mxPoint x="-80" y="120" as="offset" />
          </mxGeometry>
        </mxCell>
        <mxCell id="edge-L_ClientApp_NavComponent_2" style="edgeStyle=orthogonalEdgeStyle;rounded=1;orthogonalLoop=1;jettySize=auto;html=1;strokeColor=#A8201A;strokeWidth=2;jumpStyle=arc;jumpSize=10;spacing=15;labelBackgroundColor=none;labelBorderColor=none;fontColor=default;fontStyle=1" parent="1" source="ClientApp" target="NavComponent" edge="1">
          <mxGeometry relative="1" as="geometry" />
        </mxCell>
        <mxCell id="edge-L_ClientApp_NavComponent_2_label" value="Uses" style="edgeLabel;html=1;align=center;verticalAlign=middle;resizable=0;points=[];labelBackgroundColor=none;fontColor=#143642;fontStyle=1;rotation=90;" parent="edge-L_ClientApp_NavComponent_2" vertex="1" connectable="0">
          <mxGeometry x="-0.2" y="10" relative="1" as="geometry">
            <mxPoint y="130" as="offset" />
          </mxGeometry>
        </mxCell>
        <mxCell id="edge-L_ClientApp_ResultsPage_7" style="edgeStyle=orthogonalEdgeStyle;rounded=1;orthogonalLoop=1;jettySize=auto;html=1;strokeColor=#A8201A;strokeWidth=2;jumpStyle=arc;jumpSize=10;spacing=15;labelBackgroundColor=none;labelBorderColor=none;fontColor=default;fontStyle=1" parent="1" source="ClientApp" target="ResultsPage" edge="1">
          <mxGeometry relative="1" as="geometry" />
        </mxCell>
        <mxCell id="edge-L_ClientApp_ResultsPage_7_label" value="Routes to" style="edgeLabel;html=1;align=center;verticalAlign=middle;resizable=0;points=[];labelBackgroundColor=none;fontColor=#143642;rotation=90;fontStyle=1" parent="edge-L_ClientApp_ResultsPage_7" vertex="1" connectable="0">
          <mxGeometry x="-0.2" y="10" relative="1" as="geometry">
            <mxPoint x="20" y="136" as="offset" />
          </mxGeometry>
        </mxCell>
        <mxCell id="edge-L_ClientApp_VotePage_6" style="edgeStyle=orthogonalEdgeStyle;rounded=1;orthogonalLoop=1;jettySize=auto;html=1;strokeColor=#A8201A;strokeWidth=2;jumpStyle=arc;jumpSize=10;spacing=15;labelBackgroundColor=none;labelBorderColor=none;fontColor=default;fontStyle=1" parent="1" source="ClientApp" target="VotePage" edge="1">
          <mxGeometry relative="1" as="geometry" />
        </mxCell>
        <mxCell id="edge-L_ClientApp_VotePage_6_label" value="Routes to" style="edgeLabel;html=1;align=center;verticalAlign=middle;resizable=0;points=[];labelBackgroundColor=none;fontColor=#143642;fontStyle=1;rotation=90;" parent="edge-L_ClientApp_VotePage_6" vertex="1" connectable="0">
          <mxGeometry x="-0.2" y="10" relative="1" as="geometry">
            <mxPoint x="-42" y="32" as="offset" />
          </mxGeometry>
        </mxCell>
        <mxCell id="edge-L_ContractTests_VotingContract_22" style="edgeStyle=orthogonalEdgeStyle;rounded=1;orthogonalLoop=1;jettySize=auto;html=1;strokeColor=#A8201A;strokeWidth=2;jumpStyle=arc;jumpSize=10;spacing=15;labelBackgroundColor=none;labelBorderColor=none;fontColor=default;fontStyle=1" parent="1" source="ContractTests" target="VotingContract" edge="1">
          <mxGeometry relative="1" as="geometry" />
        </mxCell>
        <mxCell id="edge-L_ContractTests_VotingContract_22_label" value="Validates" style="edgeLabel;html=1;align=center;verticalAlign=middle;resizable=0;points=[];labelBackgroundColor=none;fontColor=#143642;fontStyle=1;rotation=90;" parent="edge-L_ContractTests_VotingContract_22" vertex="1" connectable="0">
          <mxGeometry x="-0.2" y="10" relative="1" as="geometry">
            <mxPoint x="-23" y="-23" as="offset" />
          </mxGeometry>
        </mxCell>
        <mxCell id="edge-L_DeployScripts_VotingContract_21" style="edgeStyle=orthogonalEdgeStyle;rounded=1;orthogonalLoop=1;jettySize=auto;html=1;strokeColor=#A8201A;strokeWidth=2;jumpStyle=arc;jumpSize=10;spacing=15;labelBackgroundColor=none;labelBorderColor=none;fontColor=default;fontStyle=1" parent="1" source="DeployScripts" target="VotingContract" edge="1">
          <mxGeometry relative="1" as="geometry" />
        </mxCell>
        <mxCell id="edge-L_DeployScripts_VotingContract_21_label" value="Deploys" style="edgeLabel;html=1;align=center;verticalAlign=middle;resizable=0;points=[];labelBackgroundColor=none;fontColor=#143642;fontStyle=1;rotation=90;" parent="edge-L_DeployScripts_VotingContract_21" vertex="1" connectable="0">
          <mxGeometry x="-0.2" y="10" relative="1" as="geometry">
            <mxPoint y="13" as="offset" />
          </mxGeometry>
        </mxCell>
        <mxCell id="edge-L_ElectionController_Database_17" style="edgeStyle=orthogonalEdgeStyle;rounded=1;orthogonalLoop=1;jettySize=auto;html=1;strokeColor=#A8201A;strokeWidth=2;jumpStyle=arc;jumpSize=10;spacing=15;labelBackgroundColor=none;labelBorderColor=none;fontColor=default;fontStyle=1" parent="1" source="ElectionController" target="Database" edge="1">
          <mxGeometry relative="1" as="geometry" />
        </mxCell>
        <mxCell id="edge-L_ElectionController_Database_17_label" value="CRUD Operations" style="edgeLabel;html=1;align=center;verticalAlign=middle;resizable=0;points=[];labelBackgroundColor=none;fontColor=#143642;fontStyle=1;rotation=90;" parent="edge-L_ElectionController_Database_17" vertex="1" connectable="0">
          <mxGeometry x="-0.2" y="10" relative="1" as="geometry">
            <mxPoint y="-36" as="offset" />
          </mxGeometry>
        </mxCell>
        <mxCell id="edge-L_MLService_FraudModel_24" style="edgeStyle=orthogonalEdgeStyle;rounded=1;orthogonalLoop=1;jettySize=auto;html=1;strokeColor=#A8201A;strokeWidth=2;jumpStyle=arc;jumpSize=10;spacing=15;labelBackgroundColor=none;labelBorderColor=none;fontColor=default;fontStyle=1" parent="1" source="MLService" target="FraudModel" edge="1">
          <mxGeometry relative="1" as="geometry" />
        </mxCell>
        <mxCell id="edge-L_MLService_FraudModel_24_label" value="Uses" style="edgeLabel;html=1;align=center;verticalAlign=middle;resizable=0;points=[];labelBackgroundColor=none;fontColor=#143642;fontStyle=1;rotation=90;" parent="edge-L_MLService_FraudModel_24" vertex="1" connectable="0">
          <mxGeometry x="-0.2" y="10" relative="1" as="geometry">
            <mxPoint y="-30" as="offset" />
          </mxGeometry>
        </mxCell>
        <mxCell id="edge-L_ModelTraining_FraudModel_25" style="edgeStyle=orthogonalEdgeStyle;rounded=1;orthogonalLoop=1;jettySize=auto;html=1;strokeColor=#A8201A;strokeWidth=2;jumpStyle=arc;jumpSize=10;spacing=15;labelBackgroundColor=none;labelBorderColor=none;fontColor=default;fontStyle=1" parent="1" source="ModelTraining" target="FraudModel" edge="1">
          <mxGeometry relative="1" as="geometry" />
        </mxCell>
        <mxCell id="edge-L_ModelTraining_FraudModel_25_label" value="Updates" style="edgeLabel;html=1;align=center;verticalAlign=middle;resizable=0;points=[];labelBackgroundColor=none;fontColor=#143642;fontStyle=1;rotation=0;" parent="edge-L_ModelTraining_FraudModel_25" vertex="1" connectable="0">
          <mxGeometry x="-0.2" y="10" relative="1" as="geometry">
            <mxPoint x="20" as="offset" />
          </mxGeometry>
        </mxCell>
        <mxCell id="edge-L_SmartContracts_VotingContract_20" style="edgeStyle=orthogonalEdgeStyle;rounded=1;orthogonalLoop=1;jettySize=auto;html=1;strokeColor=#A8201A;strokeWidth=2;jumpStyle=arc;jumpSize=10;spacing=15;labelBackgroundColor=none;labelBorderColor=none;fontColor=default;fontStyle=1" parent="1" source="SmartContracts" target="VotingContract" edge="1">
          <mxGeometry relative="1" as="geometry" />
        </mxCell>
        <mxCell id="edge-L_SmartContracts_VotingContract_20_label" value="Deploys" style="edgeLabel;html=1;align=center;verticalAlign=middle;resizable=0;points=[];labelBackgroundColor=none;fontColor=#143642;fontStyle=1;rotation=90;" parent="edge-L_SmartContracts_VotingContract_20" vertex="1" connectable="0">
          <mxGeometry x="-0.2" y="10" relative="1" as="geometry">
            <mxPoint x="-2" y="32" as="offset" />
          </mxGeometry>
        </mxCell>
        <mxCell id="edge-L_User_ClientApp_0" style="edgeStyle=orthogonalEdgeStyle;rounded=1;orthogonalLoop=1;jettySize=auto;html=1;strokeColor=#A8201A;strokeWidth=2;jumpStyle=arc;jumpSize=10;spacing=15;labelBackgroundColor=none;labelBorderColor=none;fontColor=default;fontStyle=1" parent="1" source="User" target="ClientApp" edge="1">
          <mxGeometry relative="1" as="geometry" />
        </mxCell>
        <mxCell id="edge-L_User_ClientApp_0_label" value="Accesses" style="edgeLabel;html=1;align=center;verticalAlign=middle;resizable=0;points=[];labelBackgroundColor=none;fontColor=#143642;fontStyle=1" parent="edge-L_User_ClientApp_0" vertex="1" connectable="0">
          <mxGeometry x="-0.2" y="10" relative="1" as="geometry">
            <mxPoint x="30" y="20" as="offset" />
          </mxGeometry>
        </mxCell>
        <mxCell id="edge-L_UserController_Database_16" style="edgeStyle=orthogonalEdgeStyle;rounded=1;orthogonalLoop=1;jettySize=auto;html=1;strokeColor=#A8201A;strokeWidth=2;jumpStyle=arc;jumpSize=10;spacing=15;labelBackgroundColor=none;labelBorderColor=none;fontColor=default;fontStyle=1" parent="1" source="UserController" target="Database" edge="1">
          <mxGeometry relative="1" as="geometry" />
        </mxCell>
        <mxCell id="edge-L_UserController_Database_16_label" value="CRUD Operations" style="edgeLabel;html=1;align=center;verticalAlign=middle;resizable=0;points=[];labelBackgroundColor=none;fontColor=#143642;fontStyle=1;rotation=90;" parent="edge-L_UserController_Database_16" vertex="1" connectable="0">
          <mxGeometry x="-0.2" y="10" relative="1" as="geometry">
            <mxPoint x="-1" y="-59" as="offset" />
          </mxGeometry>
        </mxCell>
        <mxCell id="edge-L_VoteController_Database_18" style="edgeStyle=orthogonalEdgeStyle;rounded=1;orthogonalLoop=1;jettySize=auto;html=1;strokeColor=#A8201A;strokeWidth=2;jumpStyle=arc;jumpSize=10;spacing=15;labelBackgroundColor=none;labelBorderColor=none;fontColor=default;fontStyle=1" parent="1" source="VoteController" target="Database" edge="1">
          <mxGeometry relative="1" as="geometry" />
        </mxCell>
        <mxCell id="edge-L_VoteController_Database_18_label" value="CRUD Operations" style="edgeLabel;html=1;align=center;verticalAlign=middle;resizable=0;points=[];labelBackgroundColor=none;fontColor=#143642;fontStyle=1;rotation=90;" parent="edge-L_VoteController_Database_18" vertex="1" connectable="0">
          <mxGeometry x="-0.2" y="10" relative="1" as="geometry">
            <mxPoint x="-19" y="55" as="offset" />
          </mxGeometry>
        </mxCell>
        <mxCell id="edge-L_VoteController_MLService_23" style="edgeStyle=orthogonalEdgeStyle;rounded=1;orthogonalLoop=1;jettySize=auto;html=1;strokeColor=#A8201A;strokeWidth=2;jumpStyle=arc;jumpSize=10;spacing=15;labelBackgroundColor=none;labelBorderColor=none;fontColor=default;fontStyle=1" parent="1" source="VoteController" target="MLService" edge="1">
          <mxGeometry relative="1" as="geometry" />
        </mxCell>
        <mxCell id="edge-L_VoteController_MLService_23_label" value="Fraud Check" style="edgeLabel;html=1;align=center;verticalAlign=middle;resizable=0;points=[];labelBackgroundColor=none;fontColor=#143642;fontStyle=1;rotation=90;" parent="edge-L_VoteController_MLService_23" vertex="1" connectable="0">
          <mxGeometry x="-0.2" y="10" relative="1" as="geometry">
            <mxPoint y="41" as="offset" />
          </mxGeometry>
        </mxCell>
        <mxCell id="edge-L_VoteController_SmartContracts_19" style="edgeStyle=orthogonalEdgeStyle;rounded=1;orthogonalLoop=1;jettySize=auto;html=1;strokeColor=#A8201A;strokeWidth=2;jumpStyle=arc;jumpSize=10;spacing=15;labelBackgroundColor=none;labelBorderColor=none;fontColor=default;fontStyle=1" parent="1" source="VoteController" target="SmartContracts" edge="1">
          <mxGeometry relative="1" as="geometry" />
        </mxCell>
        <mxCell id="edge-L_VoteController_SmartContracts_19_label" value="Interacts with" style="edgeLabel;html=1;align=center;verticalAlign=middle;resizable=0;points=[];labelBackgroundColor=none;fontColor=#143642;fontStyle=1" parent="edge-L_VoteController_SmartContracts_19" vertex="1" connectable="0">
          <mxGeometry x="-0.2" y="10" relative="1" as="geometry">
            <mxPoint as="offset" />
          </mxGeometry>
        </mxCell>
        <mxCell id="edge-L_VotePage_FraudDetection_9" style="edgeStyle=orthogonalEdgeStyle;rounded=1;orthogonalLoop=1;jettySize=auto;html=1;strokeColor=#A8201A;strokeWidth=2;jumpStyle=arc;jumpSize=10;spacing=15;labelBackgroundColor=none;labelBorderColor=none;fontColor=default;fontStyle=1" parent="1" source="VotePage" target="FraudDetection" edge="1">
          <mxGeometry relative="1" as="geometry" />
        </mxCell>
        <mxCell id="edge-L_VotePage_FraudDetection_9_label" value="Uses" style="edgeLabel;html=1;align=center;verticalAlign=middle;resizable=0;points=[];labelBackgroundColor=none;fontColor=#143642;fontStyle=1" parent="edge-L_VotePage_FraudDetection_9" vertex="1" connectable="0">
          <mxGeometry x="-0.2" y="10" relative="1" as="geometry">
            <mxPoint as="offset" />
          </mxGeometry>
        </mxCell>
        <mxCell id="edge-L_VotePage_VoteUtils_8" style="edgeStyle=orthogonalEdgeStyle;rounded=1;orthogonalLoop=1;jettySize=auto;html=1;strokeColor=#A8201A;strokeWidth=2;jumpStyle=arc;jumpSize=10;spacing=15;labelBackgroundColor=none;labelBorderColor=none;fontColor=default;fontStyle=1" parent="1" source="VotePage" target="VoteUtils" edge="1">
          <mxGeometry relative="1" as="geometry" />
        </mxCell>
        <mxCell id="edge-L_VotePage_VoteUtils_8_label" value="Uses" style="edgeLabel;html=1;align=center;verticalAlign=middle;resizable=0;points=[];labelBackgroundColor=none;fontColor=#143642;fontStyle=1" parent="edge-L_VotePage_VoteUtils_8" vertex="1" connectable="0">
          <mxGeometry x="-0.2" y="10" relative="1" as="geometry">
            <mxPoint y="20" as="offset" />
          </mxGeometry>
        </mxCell>
        <mxCell id="UserController" value="User Controller&lt;br&gt;(Express)" style="rounded=1;whiteSpace=wrap;html=1;fillColor=#FAE5C7;labelBackgroundColor=none;strokeColor=#0F8B8D;fontColor=#143642;fontStyle=1" parent="1" vertex="1">
          <mxGeometry x="1352" y="1340" width="120" height="60" as="geometry" />
        </mxCell>
      </root>
    </mxGraphModel>
  </diagram>
</mxfile>
